<svg width="1086" height="366" viewBox="0 0 1086 366" fill="none" xmlns="http://www.w3.org/2000/svg">
<path d="M473.688 310V265.264L456.216 298.576H448.824L431.352 265.264V310H418.104V241.84H432.312L452.472 280.624L472.824 241.84H486.936V310H473.688ZM548.495 298.384V310H501.167V241.84H547.631V253.456H514.415V269.872H543.119V280.624H514.415V298.384H548.495ZM609.799 253.456H588.007V310H574.855V253.456H553.063V241.84H609.799V253.456ZM630.413 241.84H643.853L668.909 310H655.277L648.941 293.008H625.133L618.893 310H605.261L630.413 241.84ZM646.541 283.696L637.133 255.568L627.341 283.696H646.541ZM676.385 310V241.84H689.633V298.384H724.385V310H676.385ZM759.563 310.48C754.123 310.48 749.483 309.584 745.643 307.792C741.867 305.936 738.795 303.408 736.427 300.208C734.123 297.008 732.427 293.392 731.339 289.36C730.251 285.264 729.707 281.008 729.707 276.592V241.84H742.955V276.592C742.955 279.408 743.211 282.16 743.723 284.848C744.299 287.472 745.227 289.84 746.507 291.952C747.787 294.064 749.483 295.728 751.595 296.944C753.707 298.16 756.331 298.768 759.467 298.768C762.667 298.768 765.323 298.16 767.435 296.944C769.611 295.664 771.307 293.968 772.523 291.856C773.803 289.744 774.731 287.376 775.307 284.752C775.883 282.064 776.171 279.344 776.171 276.592V241.84H789.323V276.592C789.323 281.264 788.747 285.648 787.595 289.744C786.507 293.84 784.747 297.456 782.315 300.592C779.947 303.664 776.875 306.096 773.099 307.888C769.323 309.616 764.811 310.48 759.563 310.48ZM802.667 310V241.84H832.811C835.947 241.84 838.827 242.48 841.451 243.76C844.139 245.04 846.443 246.768 848.363 248.944C850.347 251.12 851.851 253.552 852.875 256.24C853.963 258.928 854.507 261.68 854.507 264.496C854.507 267.376 853.995 270.16 852.971 272.848C852.011 275.472 850.603 277.776 848.747 279.76C846.891 281.744 844.715 283.28 842.219 284.368L857.771 310H843.179L829.163 287.152H815.915V310H802.667ZM815.915 275.536H832.523C834.187 275.536 835.659 275.056 836.939 274.096C838.219 273.072 839.243 271.728 840.011 270.064C840.779 268.4 841.163 266.544 841.163 264.496C841.163 262.32 840.715 260.432 839.819 258.832C838.923 257.168 837.771 255.856 836.363 254.896C835.019 253.936 833.547 253.456 831.947 253.456H815.915V275.536ZM894.455 310.48C890.039 310.48 885.847 309.584 881.879 307.792C877.975 306 874.519 303.536 871.511 300.4C868.567 297.2 866.263 293.488 864.599 289.264C862.935 285.04 862.103 280.464 862.103 275.536C862.103 270.864 862.935 266.48 864.599 262.384C866.263 258.224 868.599 254.576 871.607 251.44C874.615 248.304 878.135 245.84 882.167 244.048C886.199 242.256 890.583 241.36 895.319 241.36C901.719 241.36 907.191 242.736 911.735 245.488C916.343 248.176 919.799 251.76 922.103 256.24L912.215 263.536C910.487 260.144 908.055 257.552 904.919 255.76C901.847 253.968 898.487 253.072 894.839 253.072C891.959 253.072 889.335 253.68 886.967 254.896C884.599 256.112 882.551 257.776 880.823 259.888C879.095 262 877.751 264.432 876.791 267.184C875.895 269.936 875.447 272.848 875.447 275.92C875.447 279.184 875.927 282.192 876.887 284.944C877.911 287.696 879.319 290.096 881.111 292.144C882.967 294.192 885.111 295.824 887.543 297.04C889.975 298.192 892.663 298.768 895.607 298.768C899.063 298.768 902.359 297.872 905.495 296.08C908.695 294.288 911.671 291.664 914.423 288.208V301.264C908.727 307.408 902.071 310.48 894.455 310.48ZM913.463 284.656H899.735V274.96H924.407V310H913.463V284.656ZM935.698 310V241.84H948.946V310H935.698ZM959.039 275.44C959.039 271.28 959.775 267.216 961.247 263.248C962.783 259.216 964.991 255.568 967.871 252.304C970.751 248.976 974.271 246.352 978.431 244.432C982.591 242.448 987.327 241.456 992.639 241.456C998.911 241.456 1004.32 242.832 1008.86 245.584C1013.47 248.336 1016.89 251.92 1019.13 256.336L1008.96 263.344C1007.81 260.784 1006.3 258.768 1004.45 257.296C1002.59 255.76 1000.61 254.704 998.495 254.128C996.383 253.488 994.303 253.168 992.255 253.168C988.927 253.168 986.015 253.84 983.519 255.184C981.087 256.528 979.039 258.288 977.375 260.464C975.711 262.64 974.463 265.072 973.631 267.76C972.863 270.448 972.479 273.136 972.479 275.824C972.479 278.832 972.959 281.744 973.919 284.56C974.879 287.312 976.223 289.776 977.951 291.952C979.743 294.064 981.855 295.76 984.286 297.04C986.783 298.256 989.503 298.864 992.447 298.864C994.559 298.864 996.703 298.512 998.879 297.808C1001.05 297.104 1003.07 295.984 1004.93 294.448C1006.78 292.912 1008.22 290.928 1009.25 288.496L1020.09 294.736C1018.75 298.128 1016.54 301.008 1013.47 303.376C1010.46 305.744 1007.07 307.536 1003.29 308.752C999.519 309.968 995.775 310.576 992.063 310.576C987.199 310.576 982.751 309.584 978.719 307.6C974.687 305.552 971.199 302.864 968.255 299.536C965.375 296.144 963.103 292.368 961.439 288.208C959.839 283.984 959.039 279.728 959.039 275.44ZM1046.57 241.84H1060.01L1085.07 310H1071.43L1065.1 293.008H1041.29L1035.05 310H1021.42L1046.57 241.84ZM1062.7 283.696L1053.29 255.568L1043.5 283.696H1062.7Z" fill="white"/>
<path d="M421.68 182.6H427.28L437.72 211H432.04L429.4 203.92H419.48L416.88 211H411.2L421.68 182.6ZM428.4 200.04L424.48 188.32L420.4 200.04H428.4ZM457.403 190.04C457.217 189.853 456.87 189.6 456.363 189.28C455.883 188.96 455.283 188.653 454.563 188.36C453.87 188.067 453.11 187.813 452.283 187.6C451.457 187.36 450.617 187.24 449.763 187.24C448.27 187.24 447.137 187.52 446.363 188.08C445.617 188.64 445.243 189.427 445.243 190.44C445.243 191.213 445.483 191.827 445.963 192.28C446.443 192.733 447.163 193.12 448.123 193.44C449.083 193.76 450.283 194.107 451.723 194.48C453.59 194.933 455.203 195.493 456.563 196.16C457.95 196.8 459.003 197.653 459.723 198.72C460.47 199.76 460.843 201.147 460.843 202.88C460.843 204.4 460.563 205.707 460.003 206.8C459.443 207.867 458.67 208.733 457.683 209.4C456.697 210.067 455.577 210.56 454.323 210.88C453.07 211.173 451.737 211.32 450.323 211.32C448.91 211.32 447.497 211.173 446.083 210.88C444.67 210.587 443.31 210.173 442.003 209.64C440.697 209.08 439.497 208.413 438.403 207.64L440.843 202.88C441.083 203.12 441.51 203.44 442.123 203.84C442.737 204.213 443.483 204.6 444.363 205C445.243 205.373 446.203 205.693 447.243 205.96C448.283 206.227 449.337 206.36 450.403 206.36C451.897 206.36 453.03 206.107 453.803 205.6C454.577 205.093 454.963 204.373 454.963 203.44C454.963 202.587 454.657 201.92 454.043 201.44C453.43 200.96 452.577 200.547 451.483 200.2C450.39 199.827 449.097 199.427 447.603 199C445.817 198.493 444.323 197.933 443.123 197.32C441.923 196.68 441.03 195.88 440.443 194.92C439.857 193.96 439.563 192.76 439.563 191.32C439.563 189.373 440.017 187.747 440.923 186.44C441.857 185.107 443.11 184.107 444.683 183.44C446.257 182.747 448.003 182.4 449.923 182.4C451.257 182.4 452.51 182.547 453.683 182.84C454.883 183.133 456.003 183.52 457.043 184C458.083 184.48 459.017 185 459.843 185.56L457.403 190.04ZM484.735 206.16V211H465.015V182.6H484.375V187.44H470.535V194.28H482.495V198.76H470.535V206.16H484.735ZM505.958 190.04C505.771 189.853 505.425 189.6 504.918 189.28C504.438 188.96 503.838 188.653 503.118 188.36C502.425 188.067 501.665 187.813 500.838 187.6C500.011 187.36 499.171 187.24 498.318 187.24C496.825 187.24 495.691 187.52 494.918 188.08C494.171 188.64 493.798 189.427 493.798 190.44C493.798 191.213 494.038 191.827 494.518 192.28C494.998 192.733 495.718 193.12 496.678 193.44C497.638 193.76 498.838 194.107 500.278 194.48C502.145 194.933 503.758 195.493 505.118 196.16C506.505 196.8 507.558 197.653 508.278 198.72C509.025 199.76 509.398 201.147 509.398 202.88C509.398 204.4 509.118 205.707 508.558 206.8C507.998 207.867 507.225 208.733 506.238 209.4C505.251 210.067 504.131 210.56 502.878 210.88C501.625 211.173 500.291 211.32 498.878 211.32C497.465 211.32 496.051 211.173 494.638 210.88C493.225 210.587 491.865 210.173 490.558 209.64C489.251 209.08 488.051 208.413 486.958 207.64L489.398 202.88C489.638 203.12 490.065 203.44 490.678 203.84C491.291 204.213 492.038 204.6 492.918 205C493.798 205.373 494.758 205.693 495.798 205.96C496.838 206.227 497.891 206.36 498.958 206.36C500.451 206.36 501.585 206.107 502.358 205.6C503.131 205.093 503.518 204.373 503.518 203.44C503.518 202.587 503.211 201.92 502.598 201.44C501.985 200.96 501.131 200.547 500.038 200.2C498.945 199.827 497.651 199.427 496.158 199C494.371 198.493 492.878 197.933 491.678 197.32C490.478 196.68 489.585 195.88 488.998 194.92C488.411 193.96 488.118 192.76 488.118 191.32C488.118 189.373 488.571 187.747 489.478 186.44C490.411 185.107 491.665 184.107 493.238 183.44C494.811 182.747 496.558 182.4 498.478 182.4C499.811 182.4 501.065 182.547 502.238 182.84C503.438 183.133 504.558 183.52 505.598 184C506.638 184.48 507.571 185 508.398 185.56L505.958 190.04ZM525.689 211.2C523.609 211.2 521.716 210.8 520.009 210C518.329 209.2 516.876 208.12 515.649 206.76C514.449 205.373 513.516 203.827 512.849 202.12C512.183 200.387 511.849 198.613 511.849 196.8C511.849 194.907 512.196 193.107 512.889 191.4C513.609 189.667 514.583 188.133 515.809 186.8C517.063 185.44 518.529 184.373 520.209 183.6C521.916 182.8 523.783 182.4 525.809 182.4C527.863 182.4 529.729 182.813 531.409 183.64C533.116 184.467 534.569 185.573 535.769 186.96C536.969 188.347 537.903 189.893 538.569 191.6C539.236 193.307 539.569 195.067 539.569 196.88C539.569 198.747 539.223 200.547 538.529 202.28C537.836 203.987 536.863 205.52 535.609 206.88C534.383 208.213 532.916 209.267 531.209 210.04C529.529 210.813 527.689 211.2 525.689 211.2ZM517.449 196.8C517.449 198.027 517.636 199.213 518.009 200.36C518.383 201.507 518.916 202.533 519.609 203.44C520.329 204.32 521.196 205.027 522.209 205.56C523.249 206.067 524.423 206.32 525.729 206.32C527.063 206.32 528.249 206.053 529.289 205.52C530.329 204.96 531.196 204.227 531.889 203.32C532.583 202.387 533.103 201.36 533.449 200.24C533.823 199.093 534.009 197.947 534.009 196.8C534.009 195.573 533.809 194.4 533.409 193.28C533.036 192.133 532.489 191.12 531.769 190.24C531.076 189.333 530.209 188.627 529.169 188.12C528.156 187.587 527.009 187.32 525.729 187.32C524.369 187.32 523.169 187.6 522.129 188.16C521.116 188.693 520.263 189.413 519.569 190.32C518.876 191.227 518.343 192.24 517.969 193.36C517.623 194.48 517.449 195.627 517.449 196.8ZM543.804 211V182.6H556.364C557.67 182.6 558.87 182.867 559.964 183.4C561.084 183.933 562.044 184.653 562.844 185.56C563.67 186.467 564.297 187.48 564.724 188.6C565.177 189.72 565.404 190.867 565.404 192.04C565.404 193.24 565.19 194.4 564.764 195.52C564.364 196.613 563.777 197.573 563.004 198.4C562.23 199.227 561.324 199.867 560.284 200.32L566.764 211H560.684L554.844 201.48H549.324V211H543.804ZM549.324 196.64H556.244C556.937 196.64 557.55 196.44 558.084 196.04C558.617 195.613 559.044 195.053 559.364 194.36C559.684 193.667 559.844 192.893 559.844 192.04C559.844 191.133 559.657 190.347 559.284 189.68C558.91 188.987 558.43 188.44 557.844 188.04C557.284 187.64 556.67 187.44 556.004 187.44H549.324V196.64ZM570.405 211V182.6H575.925V211H570.405ZM574.925 180.2L571.485 179.16L573.645 174.4H578.645L574.925 180.2ZM589.571 182.6H595.171L605.611 211H599.931L597.291 203.92H587.371L584.771 211H579.091L589.571 182.6ZM596.291 200.04L592.371 188.32L588.291 200.04H596.291Z" fill="white"/>
<path d="M183 0C207.032 -2.55222e-10 230.829 4.73308 253.031 13.9297C275.234 23.1263 295.407 36.6065 312.4 53.5996L53.5996 312.4C36.6065 295.407 23.1263 275.234 13.9297 253.031C4.73307 230.829 5.06113e-06 207.032 0 183C-3.22074e-10 158.968 4.73309 135.171 13.9297 112.969C23.1263 90.7662 36.6065 70.5927 53.5996 53.5996C70.5927 36.6065 90.7662 23.1263 112.969 13.9297C135.171 4.73307 158.968 4.01066e-06 183 0Z" fill="#F5E200"/>
<path d="M53.5995 312.401C70.5926 329.394 90.7664 342.873 112.969 352.07C135.172 361.267 158.968 366 183 366C207.032 366 230.829 361.267 253.031 352.07C275.234 342.873 295.407 329.394 312.401 312.401C329.394 295.407 342.873 275.234 352.07 253.031C361.267 230.828 366 207.032 366 183C366 158.968 361.267 135.171 352.07 112.969C342.873 90.7663 329.394 70.5925 312.401 53.5994L183 183L53.5995 312.401Z" fill="white"/>
<path d="M164.942 166.5C163.342 168.5 116.942 167.333 93.9417 166.5L90.9417 210H147.942L136.442 239H43.4417C43.1084 250.5 42.6417 276.1 43.4417 286.5C44.4417 299.5 122.942 293 152.942 291C176.942 289.4 199.275 233 207.442 205C227.608 204.833 268.442 204.6 270.442 205C272.442 205.4 276.275 175.833 277.942 161H231.942L243.942 124.5C258.275 125.667 291.542 128.2 309.942 129C328.342 129.8 322.608 91.3333 317.442 72C292.108 72.6667 235.342 74.3 210.942 75.5C180.442 77 166.942 164 164.942 166.5Z" fill="black"/>
<path d="M450.104 126V57.84H495.896V69.456H463.352V87.024H490.424V97.776H463.352V126H450.104ZM518.882 57.84H532.322L557.378 126H543.746L537.41 109.008H513.602L507.362 126H493.73L518.882 57.84ZM535.01 99.696L525.602 71.568L515.81 99.696H535.01ZM590.549 126.48C586.133 126.48 581.941 125.584 577.973 123.792C574.069 122 570.613 119.536 567.605 116.4C564.661 113.2 562.357 109.488 560.693 105.264C559.029 101.04 558.197 96.464 558.197 91.536C558.197 86.864 559.029 82.48 560.693 78.384C562.357 74.224 564.693 70.576 567.701 67.44C570.709 64.304 574.229 61.84 578.261 60.048C582.293 58.256 586.677 57.36 591.413 57.36C597.813 57.36 603.285 58.736 607.829 61.488C612.437 64.176 615.893 67.76 618.197 72.24L608.309 79.536C606.581 76.144 604.149 73.552 601.013 71.76C597.941 69.968 594.581 69.072 590.933 69.072C588.053 69.072 585.429 69.68 583.061 70.896C580.693 72.112 578.645 73.776 576.917 75.888C575.189 78 573.845 80.432 572.885 83.184C571.989 85.936 571.541 88.848 571.541 91.92C571.541 95.184 572.021 98.192 572.981 100.944C574.005 103.696 575.413 106.096 577.205 108.144C579.061 110.192 581.205 111.824 583.637 113.04C586.069 114.192 588.757 114.768 591.701 114.768C595.157 114.768 598.453 113.872 601.589 112.08C604.789 110.288 607.765 107.664 610.517 104.208V117.264C604.821 123.408 598.165 126.48 590.549 126.48ZM609.557 100.656H595.829V90.96H620.501V126H609.557V100.656Z" fill="white"/>
<path d="M672.4 75.696C671.952 75.248 671.12 74.64 669.904 73.872C668.752 73.104 667.312 72.368 665.584 71.664C663.92 70.96 662.096 70.352 660.112 69.84C658.128 69.264 656.112 68.976 654.064 68.976C650.48 68.976 647.76 69.648 645.904 70.992C644.112 72.336 643.216 74.224 643.216 76.656C643.216 78.512 643.792 79.984 644.944 81.072C646.096 82.16 647.824 83.088 650.128 83.856C652.432 84.624 655.312 85.456 658.768 86.352C663.248 87.44 667.12 88.784 670.384 90.384C673.712 91.92 676.24 93.968 677.968 96.528C679.76 99.024 680.656 102.352 680.656 106.512C680.656 110.16 679.984 113.296 678.64 115.92C677.296 118.48 675.44 120.56 673.072 122.16C670.704 123.76 668.016 124.944 665.008 125.712C662 126.416 658.8 126.768 655.408 126.768C652.016 126.768 648.624 126.416 645.232 125.712C641.84 125.008 638.576 124.016 635.44 122.736C632.304 121.392 629.424 119.792 626.8 117.936L632.656 106.512C633.232 107.088 634.256 107.856 635.728 108.816C637.2 109.712 638.992 110.64 641.104 111.6C643.216 112.496 645.52 113.264 648.016 113.904C650.512 114.544 653.04 114.864 655.6 114.864C659.184 114.864 661.904 114.256 663.76 113.04C665.616 111.824 666.544 110.096 666.544 107.856C666.544 105.808 665.808 104.208 664.336 103.056C662.864 101.904 660.816 100.912 658.192 100.08C655.568 99.184 652.464 98.224 648.88 97.2C644.592 95.984 641.008 94.64 638.128 93.168C635.248 91.632 633.104 89.712 631.696 87.408C630.288 85.104 629.584 82.224 629.584 78.768C629.584 74.096 630.672 70.192 632.848 67.056C635.088 63.856 638.096 61.456 641.872 59.856C645.648 58.192 649.84 57.36 654.448 57.36C657.648 57.36 660.656 57.712 663.472 58.416C666.352 59.12 669.04 60.048 671.536 61.2C674.032 62.352 676.272 63.6 678.256 64.944L672.4 75.696ZM719.755 126.48C714.763 126.48 710.219 125.52 706.123 123.6C702.091 121.68 698.603 119.088 695.659 115.824C692.779 112.496 690.539 108.784 688.939 104.688C687.339 100.528 686.539 96.272 686.539 91.92C686.539 87.376 687.371 83.056 689.035 78.96C690.763 74.8 693.099 71.12 696.043 67.92C699.051 64.656 702.571 62.096 706.603 60.24C710.699 58.32 715.179 57.36 720.043 57.36C724.971 57.36 729.451 58.352 733.483 60.336C737.579 62.32 741.067 64.976 743.947 68.304C746.827 71.632 749.067 75.344 750.667 79.44C752.267 83.536 753.067 87.76 753.067 92.112C753.067 96.592 752.235 100.912 750.571 105.072C748.907 109.168 746.571 112.848 743.562 116.112C740.619 119.312 737.099 121.84 733.003 123.696C728.971 125.552 724.555 126.48 719.755 126.48ZM699.979 91.92C699.979 94.864 700.427 97.712 701.323 100.464C702.219 103.216 703.499 105.68 705.163 107.856C706.891 109.968 708.971 111.664 711.403 112.944C713.899 114.16 716.715 114.768 719.851 114.768C723.051 114.768 725.899 114.128 728.395 112.848C730.891 111.504 732.971 109.744 734.635 107.568C736.299 105.328 737.547 102.864 738.379 100.176C739.275 97.424 739.723 94.672 739.723 91.92C739.723 88.976 739.243 86.16 738.283 83.472C737.387 80.72 736.075 78.288 734.347 76.176C732.683 74 730.603 72.304 728.107 71.088C725.675 69.808 722.923 69.168 719.851 69.168C716.587 69.168 713.707 69.84 711.211 71.184C708.779 72.464 706.731 74.192 705.067 76.368C703.403 78.544 702.123 80.976 701.227 83.664C700.395 86.352 699.979 89.104 699.979 91.92ZM763.229 126V57.84H776.477V114.384H811.229V126H763.229ZM880.056 75.696C879.608 75.248 878.776 74.64 877.56 73.872C876.408 73.104 874.968 72.368 873.24 71.664C871.576 70.96 869.752 70.352 867.768 69.84C865.784 69.264 863.768 68.976 861.72 68.976C858.136 68.976 855.416 69.648 853.56 70.992C851.768 72.336 850.872 74.224 850.872 76.656C850.872 78.512 851.448 79.984 852.6 81.072C853.752 82.16 855.48 83.088 857.784 83.856C860.088 84.624 862.968 85.456 866.424 86.352C870.904 87.44 874.776 88.784 878.04 90.384C881.368 91.92 883.896 93.968 885.624 96.528C887.416 99.024 888.312 102.352 888.312 106.512C888.312 110.16 887.64 113.296 886.296 115.92C884.952 118.48 883.096 120.56 880.728 122.16C878.36 123.76 875.672 124.944 872.664 125.712C869.656 126.416 866.456 126.768 863.064 126.768C859.672 126.768 856.28 126.416 852.888 125.712C849.496 125.008 846.232 124.016 843.096 122.736C839.96 121.392 837.08 119.792 834.456 117.936L840.312 106.512C840.888 107.088 841.912 107.856 843.384 108.816C844.856 109.712 846.648 110.64 848.76 111.6C850.872 112.496 853.176 113.264 855.672 113.904C858.168 114.544 860.696 114.864 863.256 114.864C866.84 114.864 869.56 114.256 871.416 113.04C873.272 111.824 874.2 110.096 874.2 107.856C874.2 105.808 873.464 104.208 871.992 103.056C870.52 101.904 868.472 100.912 865.848 100.08C863.224 99.184 860.12 98.224 856.536 97.2C852.248 95.984 848.664 94.64 845.784 93.168C842.904 91.632 840.76 89.712 839.352 87.408C837.944 85.104 837.24 82.224 837.24 78.768C837.24 74.096 838.328 70.192 840.504 67.056C842.744 63.856 845.752 61.456 849.528 59.856C853.304 58.192 857.496 57.36 862.104 57.36C865.304 57.36 868.312 57.712 871.128 58.416C874.008 59.12 876.696 60.048 879.192 61.2C881.688 62.352 883.928 63.6 885.912 64.944L880.056 75.696ZM915.351 57.84H928.791L953.847 126H940.215L933.879 109.008H910.071L903.831 126H890.199L915.351 57.84ZM931.479 99.696L922.071 71.568L912.279 99.696H931.479ZM954.57 91.44C954.57 87.28 955.306 83.216 956.778 79.248C958.314 75.216 960.522 71.568 963.402 68.304C966.282 64.976 969.802 62.352 973.962 60.432C978.122 58.448 982.858 57.456 988.17 57.456C994.442 57.456 999.85 58.832 1004.39 61.584C1009 64.336 1012.43 67.92 1014.67 72.336L1004.49 79.344C1003.34 76.784 1001.83 74.768 999.978 73.296C998.122 71.76 996.138 70.704 994.026 70.128C991.914 69.488 989.834 69.168 987.786 69.168C984.458 69.168 981.546 69.84 979.05 71.184C976.618 72.528 974.57 74.288 972.906 76.464C971.242 78.64 969.994 81.072 969.162 83.76C968.394 86.448 968.01 89.136 968.01 91.824C968.01 94.832 968.49 97.744 969.45 100.56C970.41 103.312 971.754 105.776 973.482 107.952C975.274 110.064 977.386 111.76 979.818 113.04C982.314 114.256 985.034 114.864 987.978 114.864C990.09 114.864 992.234 114.512 994.41 113.808C996.586 113.104 998.602 111.984 1000.46 110.448C1002.31 108.912 1003.75 106.928 1004.78 104.496L1015.63 110.736C1014.28 114.128 1012.07 117.008 1009 119.376C1005.99 121.744 1002.6 123.536 998.826 124.752C995.05 125.968 991.306 126.576 987.594 126.576C982.73 126.576 978.282 125.584 974.25 123.6C970.218 121.552 966.73 118.864 963.786 115.536C960.906 112.144 958.634 108.368 956.97 104.208C955.37 99.984 954.57 95.728 954.57 91.44Z" fill="#FFD000"/>
<line x1="378" y1="152.5" x2="1064" y2="152.5" stroke="white" stroke-width="7"/>
</svg>
